{
  "source": "C:\\Users\\Peter\\Desktop\\stuff\\MIUN\\quantitative_research\\video_compression\\videos\\UVG\\Bosphorus_1920x1080_120fps_420_8bit_YUV.y4m",
  "output": "C:\\Users\\Peter\\Desktop\\stuff\\MIUN\\quantitative_research\\video_compression\\compressed_videos\\UVG\\h264\\12\\Bosphorus_1920x1080_120fps_420_8bit_YUV_h264.mp4",
  "codec": "h264",
  "ok": "[yuv4mpegpipe @ 000001655d895f80] Stream #0: not enough frames to estimate rate; consider increasing probesize\nInput #0, yuv4mpegpipe, from 'C:\\Users\\Peter\\Desktop\\stuff\\MIUN\\quantitative_research\\video_compression\\videos\\UVG\\Bosphorus_1920x1080_120fps_420_8bit_YUV.y4m':\n  Duration: 00:00:05.00, start: 0.000000, bitrate: 2985989 kb/s\n  Stream #0:0: Video: rawvideo (I420 / 0x30323449), yuv420p(progressive), 1920x1080, 120 fps, 120 tbr, 120 tbn\n[out#0/mp4 @ 000001655d899e40] Codec AVOption b:a (set bitrate (in bits/s)) has not been used for any stream. The most likely reason is either wrong type (e.g. a video option with no video streams) or that it is a private option of some decoder which was not actually used for any stream.\nStream mapping:\n  Stream #0:0 -> #0:0 (rawvideo (native) -> h264 (libx264))\nPress [q] to stop, [?] for help\n[libx264 @ 000001655d89cec0] using cpu capabilities: MMX2 SSE2Fast SSSE3 SSE4.2 AVX FMA3 BMI2 AVX2\n[libx264 @ 000001655d89cec0] profile High, level 5.1, 4:2:0, 8-bit\n[libx264 @ 000001655d89cec0] 264 - core 165 r3222 b35605a - H.264/MPEG-4 AVC codec - Copyleft 2003-2025 - http://www.videolan.org/x264.html - options: cabac=1 ref=5 deblock=1:0:0 analyse=0x3:0x113 me=hex subme=8 psy=1 psy_rd=1.00:0.00 mixed_ref=1 me_range=16 chroma_me=1 trellis=2 8x8dct=1 cqm=0 deadzone=21,11 fast_pskip=1 chroma_qp_offset=-2 threads=18 lookahead_threads=3 sliced_threads=0 nr=0 decimate=1 interlaced=0 bluray_compat=0 constrained_intra=0 bframes=3 b_pyramid=2 b_adapt=1 b_bias=0 direct=3 weightb=1 open_gop=0 weightp=2 keyint=250 keyint_min=25 scenecut=40 intra_refresh=0 rc_lookahead=50 rc=cbr mbtree=1 bitrate=12000 ratetol=1.0 qcomp=0.60 qpmin=0 qpmax=69 qpstep=4 vbv_maxrate=12000 vbv_bufsize=12000 nal_hrd=none filler=0 ip_ratio=1.40 aq=1:1.00\nOutput #0, mp4, to 'C:\\Users\\Peter\\Desktop\\stuff\\MIUN\\quantitative_research\\video_compression\\compressed_videos\\UVG\\h264\\12\\Bosphorus_1920x1080_120fps_420_8bit_YUV_h264.mp4':\n  Metadata:\n    encoder         : Lavf62.3.100\n  Stream #0:0: Video: h264 (avc1 / 0x31637661), yuv420p(tv, progressive), 1920x1080, q=2-31, 12000 kb/s, 120 fps, 15360 tbn\n    Metadata:\n      encoder         : Lavc62.11.100 libx264\n    Side data:\n      cpb: bitrate max/min/avg: 12000000/0/12000000 buffer size: 12000000 vbv_delay: N/A\nframe=    0 fps=0.0 q=0.0 size=       0KiB time=N/A bitrate=N/A speed=N/A elapsed=0:00:00.51    \nframe=    0 fps=0.0 q=0.0 size=       0KiB time=N/A bitrate=N/A speed=N/A elapsed=0:00:01.07    \nframe=    0 fps=0.0 q=0.0 size=       0KiB time=N/A bitrate=N/A speed=N/A elapsed=0:00:01.61    \nframe=    0 fps=0.0 q=0.0 size=       0KiB time=N/A bitrate=N/A speed=N/A elapsed=0:00:02.14    \nframe=    0 fps=0.0 q=0.0 size=       0KiB time=N/A bitrate=N/A speed=N/A elapsed=0:00:02.69    \nframe=    0 fps=0.0 q=0.0 size=       0KiB time=N/A bitrate=N/A speed=N/A elapsed=0:00:03.22    \nframe=    0 fps=0.0 q=0.0 size=       0KiB time=N/A bitrate=N/A speed=N/A elapsed=0:00:03.77    \nframe=    5 fps=1.1 q=33.0 size=       0KiB time=00:00:00.02 bitrate=  15.4kbits/s speed=0.00572x elapsed=0:00:04.36    \nframe=   14 fps=2.8 q=31.0 size=       0KiB time=00:00:00.09 bitrate=   4.2kbits/s speed=0.0186x elapsed=0:00:04.91    \nframe=   19 fps=3.5 q=31.0 size=       0KiB time=00:00:00.13 bitrate=   2.9kbits/s speed=0.0243x elapsed=0:00:05.48    \nframe=   25 fps=4.1 q=29.0 size=       0KiB time=00:00:00.19 bitrate=   2.0kbits/s speed=0.0317x elapsed=0:00:06.04    \nframe=   29 fps=4.4 q=30.0 size=       0KiB time=00:00:00.21 bitrate=   1.8kbits/s speed=0.0329x elapsed=0:00:06.59    \nframe=   31 fps=4.3 q=30.0 size=       0KiB time=00:00:00.23 bitrate=   1.6kbits/s speed=0.0325x elapsed=0:00:07.17    \nframe=   41 fps=5.3 q=30.0 size=     256KiB time=00:00:00.32 bitrate=6454.0kbits/s speed=0.042x elapsed=0:00:07.74    \nframe=   45 fps=5.4 q=30.0 size=     256KiB time=00:00:00.35 bitrate=5853.6kbits/s speed=0.0431x elapsed=0:00:08.31    \nframe=   47 fps=5.3 q=30.0 size=     256KiB time=00:00:00.36 bitrate=5720.5kbits/s speed=0.0413x elapsed=0:00:08.87    \nframe=   54 fps=5.7 q=30.0 size=     256KiB time=00:00:00.42 bitrate=4935.4kbits/s speed=0.045x elapsed=0:00:09.44    \nframe=   61 fps=6.1 q=30.0 size=     512KiB time=00:00:00.49 bitrate=8531.6kbits/s speed=0.0489x elapsed=0:00:10.04    \nframe=   65 fps=6.1 q=30.0 size=     512KiB time=00:00:00.52 bitrate=7989.9kbits/s speed=0.0494x elapsed=0:00:10.62    \nframe=   68 fps=6.1 q=30.0 size=     512KiB time=00:00:00.53 bitrate=7865.0kbits/s speed=0.0477x elapsed=0:00:11.18    \nframe=   69 fps=5.9 q=30.0 size=     512KiB time=00:00:00.55 bitrate=7512.9kbits/s speed=0.0475x elapsed=0:00:11.74    \nframe=   76 fps=6.2 q=30.0 size=     512KiB time=00:00:00.61 bitrate=6802.2kbits/s speed=0.0501x elapsed=0:00:12.30    \nframe=   81 fps=6.3 q=30.0 size=     768KiB time=00:00:00.65 bitrate=9557.2kbits/s speed=0.0512x elapsed=0:00:12.84    \nframe=   81 fps=6.1 q=30.0 size=     768KiB time=00:00:00.65 bitrate=9557.2kbits/s speed=0.0492x elapsed=0:00:13.37    \nframe=   85 fps=6.1 q=30.0 size=     768KiB time=00:00:00.69 bitrate=9096.6kbits/s speed=0.0497x elapsed=0:00:13.91    \nframe=   93 fps=6.4 q=30.0 size=     768KiB time=00:00:00.75 bitrate=8296.9kbits/s speed=0.0525x elapsed=0:00:14.45    \nframe=  100 fps=6.7 q=30.0 size=    1024KiB time=00:00:00.81 bitrate=10272.2kbits/s speed=0.0545x elapsed=0:00:14.99    \nframe=  108 fps=6.9 q=30.0 size=    1024KiB time=00:00:00.88 bitrate=9497.0kbits/s speed=0.0568x elapsed=0:00:15.54    \nframe=  119 fps=7.4 q=30.0 size=    1024KiB time=00:00:00.96 bitrate=8678.3kbits/s speed=0.0601x elapsed=0:00:16.08    \nframe=  128 fps=7.7 q=30.0 size=    1280KiB time=00:00:01.05 bitrate=9986.8kbits/s speed=0.0631x elapsed=0:00:16.64    \nframe=  133 fps=7.7 q=30.0 size=    1280KiB time=00:00:01.09 bitrate=9605.6kbits/s speed=0.0635x elapsed=0:00:17.18    \nframe=  136 fps=7.7 q=30.0 size=    1280KiB time=00:00:01.10 bitrate=9532.9kbits/s speed=0.0621x elapsed=0:00:17.71    \nframe=  141 fps=7.7 q=30.0 size=    1280KiB time=00:00:01.15 bitrate=9052.8kbits/s speed=0.0634x elapsed=0:00:18.26    \nframe=  149 fps=7.9 q=30.0 size=    1536KiB time=00:00:01.22 bitrate=10272.1kbits/s speed=0.0652x elapsed=0:00:18.80    \nframe=  157 fps=8.1 q=30.0 size=    1536KiB time=00:00:01.28 bitrate=9805.2kbits/s speed=0.0663x elapsed=0:00:19.34    \nframe=  157 fps=7.9 q=30.0 size=    1536KiB time=00:00:01.29 bitrate=9741.9kbits/s speed=0.0649x elapsed=0:00:19.89    \nframe=  164 fps=8.0 q=30.0 size=    1792KiB time=00:00:01.35 bitrate=10874.4kbits/s speed=0.0661x elapsed=0:00:20.43    \nframe=  169 fps=8.1 q=30.0 size=    1792KiB time=00:00:01.37 bitrate=10676.7kbits/s speed=0.0656x elapsed=0:00:20.97    \nframe=  175 fps=8.1 q=30.0 size=    1792KiB time=00:00:01.44 bitrate=10183.0kbits/s speed=0.067x elapsed=0:00:21.51    \nframe=  177 fps=8.0 q=30.0 size=    1792KiB time=00:00:01.45 bitrate=10066.6kbits/s speed=0.0661x elapsed=0:00:22.05    \nframe=  185 fps=8.2 q=30.0 size=    1792KiB time=00:00:01.52 bitrate=9626.5kbits/s speed=0.0675x elapsed=0:00:22.60    \nframe=  189 fps=8.2 q=30.0 size=    2048KiB time=00:00:01.55 bitrate=10766.4kbits/s speed=0.0673x elapsed=0:00:23.16    \nframe=  197 fps=8.3 q=30.0 size=    2048KiB time=00:00:01.62 bitrate=10324.7kbits/s speed=0.0685x elapsed=0:00:23.72    \nframe=  205 fps=8.4 q=30.0 size=    2048KiB time=00:00:01.69 bitrate=9917.8kbits/s speed=0.0697x elapsed=0:00:24.28    \nframe=  206 fps=8.3 q=30.0 size=    2048KiB time=00:00:01.69 bitrate=9917.8kbits/s speed=0.0681x elapsed=0:00:24.82    \nframe=  209 fps=8.2 q=30.0 size=    2304KiB time=00:00:01.72 bitrate=10941.9kbits/s speed=0.068x elapsed=0:00:25.37    \nframe=  217 fps=8.4 q=30.0 size=    2304KiB time=00:00:01.79 bitrate=10534.7kbits/s speed=0.0691x elapsed=0:00:25.92    \nframe=  227 fps=8.6 q=30.0 size=    2560KiB time=00:00:01.85 bitrate=11285.3kbits/s speed=0.0702x elapsed=0:00:26.47    \nframe=  231 fps=8.5 q=30.0 size=    2560KiB time=00:00:01.90 bitrate=10989.6kbits/s speed=0.0706x elapsed=0:00:27.02    \nframe=  232 fps=8.4 q=30.0 size=    2560KiB time=00:00:01.91 bitrate=10941.9kbits/s speed=0.0695x elapsed=0:00:27.56    \nframe=  232 fps=8.3 q=30.0 size=    2560KiB time=00:00:01.91 bitrate=10941.9kbits/s speed=0.0682x elapsed=0:00:28.10    \nframe=  238 fps=8.3 q=30.0 size=    2560KiB time=00:00:01.96 bitrate=10663.7kbits/s speed=0.0686x elapsed=0:00:28.66    \nframe=  246 fps=8.4 q=30.0 size=    2560KiB time=00:00:02.03 bitrate=10314.1kbits/s speed=0.0696x elapsed=0:00:29.22    \nframe=  250 fps=8.4 q=30.0 size=    2816KiB time=00:00:02.06 bitrate=11162.4kbits/s speed=0.0694x elapsed=0:00:29.76    \nframe=  250 fps=8.2 q=30.0 size=    2816KiB time=00:00:02.06 bitrate=11162.4kbits/s speed=0.0682x elapsed=0:00:30.31    \nframe=  256 fps=8.3 q=30.0 size=    2816KiB time=00:00:02.11 bitrate=10898.8kbits/s speed=0.0686x elapsed=0:00:30.86    \nframe=  260 fps=8.3 q=30.0 size=    2816KiB time=00:00:02.14 bitrate=10771.5kbits/s speed=0.0681x elapsed=0:00:31.44    \nframe=  268 fps=8.4 q=30.0 size=    3072KiB time=00:00:02.21 bitrate=11353.2kbits/s speed=0.0692x elapsed=0:00:32.03    \nframe=  271 fps=8.3 q=30.0 size=    3072KiB time=00:00:02.24 bitrate=11226.6kbits/s speed=0.0687x elapsed=0:00:32.62    \nframe=  272 fps=8.2 q=30.0 size=    3072KiB time=00:00:02.24 bitrate=11226.6kbits/s speed=0.0675x elapsed=0:00:33.20    \nframe=  279 fps=8.3 q=30.0 size=    3072KiB time=00:00:02.30 bitrate=10902.3kbits/s speed=0.0684x elapsed=0:00:33.76    \nframe=  287 fps=8.4 q=30.0 size=    3328KiB time=00:00:02.37 bitrate=11479.3kbits/s speed=0.0692x elapsed=0:00:34.33    \nframe=  295 fps=8.5 q=30.0 size=    3328KiB time=00:00:02.44 bitrate=11165.9kbits/s speed=0.0699x elapsed=0:00:34.90    \nframe=  297 fps=8.4 q=30.0 size=    3328KiB time=00:00:02.45 bitrate=11090.2kbits/s speed=0.0693x elapsed=0:00:35.48    \nframe=  303 fps=8.4 q=30.0 size=    3328KiB time=00:00:02.50 bitrate=10869.1kbits/s speed=0.0696x elapsed=0:00:36.05    \nframe=  314 fps=8.6 q=30.0 size=    3584KiB time=00:00:02.60 bitrate=11292.5kbits/s speed=0.071x elapsed=0:00:36.61    \nframe=  321 fps=8.6 q=30.0 size=    3584KiB time=00:00:02.65 bitrate=11079.4kbits/s speed=0.0713x elapsed=0:00:37.18    \nframe=  324 fps=8.6 q=30.0 size=    3584KiB time=00:00:02.68 bitrate=10941.8kbits/s speed=0.071x elapsed=0:00:37.79    \nframe=  327 fps=8.5 q=30.0 size=    3584KiB time=00:00:02.70 bitrate=10840.8kbits/s speed=0.0706x elapsed=0:00:38.37    \nframe=  327 fps=8.4 q=30.0 size=    3584KiB time=00:00:02.70 bitrate=10840.8kbits/s speed=0.0695x elapsed=0:00:38.94    \nframe=  339 fps=8.6 q=30.0 size=    3840KiB time=00:00:02.80 bitrate=11234.9kbits/s speed=0.0709x elapsed=0:00:39.51    \nframe=  343 fps=8.6 q=30.0 size=    3840KiB time=00:00:02.83 bitrate=11102.7kbits/s speed=0.0707x elapsed=0:00:40.06    \nframe=  351 fps=8.6 q=30.0 size=    4096KiB time=00:00:02.90 bitrate=11570.6kbits/s speed=0.0714x elapsed=0:00:40.63    \nframe=  359 fps=8.7 q=30.0 size=    4096KiB time=00:00:02.97 bitrate=11278.9kbits/s speed=0.0722x elapsed=0:00:41.20    \nframe=  363 fps=8.7 q=30.0 size=    4096KiB time=00:00:03.00 bitrate=11154.0kbits/s speed=0.072x elapsed=0:00:41.77    \nframe=  363 fps=8.6 q=30.0 size=    4096KiB time=00:00:03.00 bitrate=11154.0kbits/s speed=0.071x elapsed=0:00:42.36    \nframe=  363 fps=8.5 q=30.0 size=    4096KiB time=00:00:03.00 bitrate=11154.0kbits/s speed=0.0701x elapsed=0:00:42.93    \nframe=  368 fps=8.5 q=30.0 size=    4096KiB time=00:00:03.04 bitrate=11031.7kbits/s speed=0.0699x elapsed=0:00:43.50    \nframe=  375 fps=8.5 q=30.0 size=    4352KiB time=00:00:03.10 bitrate=11469.8kbits/s speed=0.0705x elapsed=0:00:44.08    \nframe=  379 fps=8.5 q=30.0 size=    4352KiB time=00:00:03.14 bitrate=11348.1kbits/s speed=0.0703x elapsed=0:00:44.66    \nframe=  388 fps=8.6 q=30.0 size=    4352KiB time=00:00:03.20 bitrate=11141.2kbits/s speed=0.0707x elapsed=0:00:45.23    \nframe=  397 fps=8.7 q=30.0 size=    4608KiB time=00:00:03.29 bitrate=11468.1kbits/s speed=0.0719x elapsed=0:00:45.80    \nframe=  399 fps=8.6 q=30.0 size=    4608KiB time=00:00:03.30 bitrate=11410.3kbits/s speed=0.0714x elapsed=0:00:46.36    \nframe=  399 fps=8.5 q=30.0 size=    4608KiB time=00:00:03.30 bitrate=11410.3kbits/s speed=0.0705x elapsed=0:00:46.93    \nframe=  399 fps=8.4 q=30.0 size=    4608KiB time=00:00:03.30 bitrate=11410.3kbits/s speed=0.0697x elapsed=0:00:47.48    \nframe=  408 fps=8.5 q=30.0 size=    4608KiB time=00:00:03.37 bitrate=11184.9kbits/s speed=0.0703x elapsed=0:00:48.03    \nframe=  416 fps=8.6 q=30.0 size=    4608KiB time=00:00:03.44 bitrate=10968.3kbits/s speed=0.0708x elapsed=0:00:48.59    \nframe=  423 fps=8.6 q=30.0 size=    4864KiB time=00:00:03.50 bitrate=11384.6kbits/s speed=0.0712x elapsed=0:00:49.15    \nframe=  430 fps=8.7 q=30.0 size=    4864KiB time=00:00:03.56 bitrate=11171.9kbits/s speed=0.0718x elapsed=0:00:49.70    \nframe=  431 fps=8.6 q=30.0 size=    4864KiB time=00:00:03.57 bitrate=11145.8kbits/s speed=0.0711x elapsed=0:00:50.27    \nframe=  441 fps=8.7 q=30.0 size=    5120KiB time=00:00:03.65 bitrate=11465.2kbits/s speed=0.072x elapsed=0:00:50.82    \nframe=  447 fps=8.7 q=30.0 size=    5120KiB time=00:00:03.70 bitrate=11310.6kbits/s speed=0.0722x elapsed=0:00:51.38    \nframe=  447 fps=8.6 q=30.0 size=    5120KiB time=00:00:03.70 bitrate=11310.6kbits/s speed=0.0714x elapsed=0:00:51.95    \nframe=  451 fps=8.6 q=30.0 size=    5120KiB time=00:00:03.74 bitrate=11209.8kbits/s speed=0.0712x elapsed=0:00:52.51    \nframe=  452 fps=8.5 q=30.0 size=    5120KiB time=00:00:03.74 bitrate=11209.8kbits/s speed=0.0705x elapsed=0:00:53.07    \nframe=  459 fps=8.6 q=30.0 size=    5120KiB time=00:00:03.80 bitrate=11013.6kbits/s speed=0.071x elapsed=0:00:53.63    \nframe=  468 fps=8.6 q=30.0 size=    5376KiB time=00:00:03.86 bitrate=11389.8kbits/s speed=0.0713x elapsed=0:00:54.20    \nframe=  474 fps=8.7 q=30.0 size=    5376KiB time=00:00:03.93 bitrate=11196.8kbits/s speed=0.0718x elapsed=0:00:54.75    \nframe=  475 fps=8.6 q=30.0 size=    5376KiB time=00:00:03.94 bitrate=11173.1kbits/s speed=0.0713x elapsed=0:00:55.31    \nframe=  483 fps=8.6 q=30.0 size=    5632KiB time=00:00:04.00 bitrate=11510.5kbits/s speed=0.0717x elapsed=0:00:55.89    \nframe=  483 fps=8.6 q=30.0 size=    5632KiB time=00:00:04.00 bitrate=11510.5kbits/s speed=0.071x elapsed=0:00:56.46    \nframe=  483 fps=8.5 q=30.0 size=    5632KiB time=00:00:04.00 bitrate=11510.5kbits/s speed=0.0703x elapsed=0:00:57.02    \nframe=  490 fps=8.5 q=30.0 size=    5632KiB time=00:00:04.05 bitrate=11392.0kbits/s speed=0.0703x elapsed=0:00:57.58    \nframe=  500 fps=8.6 q=30.0 size=    5632KiB time=00:00:04.15 bitrate=11117.5kbits/s speed=0.0711x elapsed=0:00:58.39    \nframe=  509 fps=8.5 q=30.0 size=    5888KiB time=00:00:04.22 bitrate=11416.5kbits/s speed=0.071x elapsed=0:00:59.53    \nframe=  521 fps=8.6 q=30.0 size=    6144KiB time=00:00:04.32 bitrate=11637.5kbits/s speed=0.0716x elapsed=0:01:00.38    \nframe=  525 fps=8.6 q=30.0 size=    6144KiB time=00:00:04.35 bitrate=11548.5kbits/s speed=0.0712x elapsed=0:01:01.18    \nframe=  537 fps=8.6 q=30.0 size=    6400KiB time=00:00:04.45 bitrate=11759.8kbits/s speed=0.0718x elapsed=0:01:02.08    \nframe=  541 fps=8.6 q=30.0 size=    6400KiB time=00:00:04.49 bitrate=11672.5kbits/s speed=0.0713x elapsed=0:01:03.02    \nframe=  557 fps=8.8 q=30.0 size=    6656KiB time=00:00:04.62 bitrate=11789.5kbits/s speed=0.0728x elapsed=0:01:03.54    \nframe=  565 fps=8.8 q=29.0 size=    6656KiB time=00:00:04.69 bitrate=11622.0kbits/s speed=0.0732x elapsed=0:01:04.05    \nframe=  573 fps=8.9 q=29.0 size=    6656KiB time=00:00:04.75 bitrate=11459.1kbits/s speed=0.0737x elapsed=0:01:04.56    \nframe=  577 fps=8.9 q=28.0 size=    6656KiB time=00:00:04.79 bitrate=11379.4kbits/s speed=0.0736x elapsed=0:01:05.09    \nframe=  577 fps=8.8 q=28.0 size=    6656KiB time=00:00:04.79 bitrate=11379.4kbits/s speed=0.073x elapsed=0:01:05.60    \nframe=  585 fps=8.8 q=-1.0 size=    6912KiB time=00:00:04.85 bitrate=11654.9kbits/s speed=0.0735x elapsed=0:01:06.12    \nframe=  585 fps=8.8 q=-1.0 size=    6912KiB time=00:00:04.85 bitrate=11654.9kbits/s speed=0.0729x elapsed=0:01:06.62    \nframe=  585 fps=8.7 q=-1.0 size=    6912KiB time=00:00:04.85 bitrate=11654.9kbits/s speed=0.0723x elapsed=0:01:07.15    \n[mp4 @ 000001655d899f40] Starting second pass: moving the moov atom to the beginning of the file\n[out#0/mp4 @ 000001655d899e40] video:7160KiB audio:0KiB subtitle:0KiB other streams:0KiB global headers:0KiB muxing overhead: 0.111221%\nframe=  600 fps=8.9 q=-1.0 Lsize=    7168KiB time=00:00:04.98 bitrate=11783.9kbits/s speed=0.0736x elapsed=0:01:07.67    \n[libx264 @ 000001655d89cec0] frame I:3     Avg QP:23.91  size:107394\n[libx264 @ 000001655d89cec0] frame P:151   Avg QP:25.04  size: 33987\n[libx264 @ 000001655d89cec0] frame B:446   Avg QP:28.65  size:  4209\n[libx264 @ 000001655d89cec0] consecutive B-frames:  0.8%  0.0%  0.5% 98.7%\n[libx264 @ 000001655d89cec0] mb I  I16..4: 15.9% 74.3%  9.8%\n[libx264 @ 000001655d89cec0] mb P  I16..4:  0.4%  0.9%  0.1%  P16..4: 42.3% 18.1%  7.8%  0.0%  0.0%    skip:30.4%\n[libx264 @ 000001655d89cec0] mb B  I16..4:  0.0%  0.0%  0.0%  B16..8: 40.5%  1.0%  0.2%  direct: 0.6%  skip:57.7%  L0:35.1% L1:62.1% BI: 2.8%\n[libx264 @ 000001655d89cec0] 8x8 transform intra:70.3% inter:73.8%\n[libx264 @ 000001655d89cec0] direct mvs  spatial:97.8% temporal:2.2%\n[libx264 @ 000001655d89cec0] coded y,uvDC,uvAC intra: 68.4% 55.4% 26.2% inter: 9.0% 5.0% 0.2%\n[libx264 @ 000001655d89cec0] i16 v,h,dc,p: 11% 79%  2%  8%\n[libx264 @ 000001655d89cec0] i8 v,h,dc,ddl,ddr,vr,hd,vl,hu:  4% 27%  4%  7% 12%  8% 16%  6% 16%\n[libx264 @ 000001655d89cec0] i4 v,h,dc,ddl,ddr,vr,hd,vl,hu:  3% 24%  3%  7% 12%  9% 17%  7% 19%\n[libx264 @ 000001655d89cec0] i8c dc,h,v,p: 22% 60%  9%  8%\n[libx264 @ 000001655d89cec0] Weighted P-Frames: Y:0.0% UV:0.0%\n[libx264 @ 000001655d89cec0] ref P L0: 65.5% 19.7% 10.8%  2.0%  2.0%\n[libx264 @ 000001655d89cec0] ref B L0: 94.8%  4.0%  0.9%  0.2%\n[libx264 @ 000001655d89cec0] ref B L1: 98.0%  2.0%\n[libx264 @ 000001655d89cec0] kb/s:11730.35\n",
  "seconds": 71.50869488716125,
  "probe_out": {}
}